<?xml version="1.0" encoding="iso-8859-1"?>
<!-- Generator: Adobe Illustrator 19.0.0, SVG Export Plug-In . SVG Version: 6.00 Build 0)  -->
<svg version="1.1" id="Layer_1" xmlns="http://www.w3.org/2000/svg" xmlns:xlink="http://www.w3.org/1999/xlink" x="0px" y="0px"
	 viewBox="0 0 512 512" style="enable-background:new 0 0 512 512;" xml:space="preserve">
<path style="fill:#E88158;" d="M149.71,0h254.327h48.592c22.248,0,40.293,18.045,40.293,40.293v431.414
	c0,22.261-18.045,40.293-40.293,40.293h-48.592H149.71"/>
<path style="fill:#E6E6E6;" d="M147.051,12.009h242.397h62.972c12.009,0,21.743,9.735,21.743,21.743v444.494
	c0,12.009-9.735,21.743-21.743,21.743h-62.972H147.051"/>
<path style="fill:#E88158;" d="M59.486,75.445V40.293C59.486,18.045,77.531,0,99.779,0h302.919
	c22.248,0,40.293,18.045,40.293,40.293v431.414c0,22.261-18.045,40.293-40.293,40.293H99.779c-22.248,0-40.293-18.031-40.293-40.293
	v-35.152C59.486,436.555,59.486,75.445,59.486,75.445z"/>
<path style="fill:#D37250;" d="M87.597,471.707v-35.152V75.445V40.293C87.597,18.045,105.642,0,127.89,0h-26.773
	C78.87,0,60.825,18.045,60.825,40.293v35.152v361.109v35.152c0,22.261,18.045,40.293,40.293,40.293h26.773
	C105.642,512,87.597,493.969,87.597,471.707z"/>
<g>
	<path style="fill:#F4BD64;" d="M107.415,416.474c0,11.097-8.982,20.079-20.066,20.079H39.158c-5.555,0-10.562-2.249-14.203-5.877
		c-3.628-3.641-5.877-8.648-5.877-14.203c0-11.084,8.982-20.079,20.079-20.079h48.191c5.542,0,10.562,2.249,14.189,5.877
		C105.166,405.912,107.415,410.932,107.415,416.474z"/>
	<path style="fill:#F4BD64;" d="M107.415,255.999c0,11.097-8.982,20.079-20.066,20.079H39.158c-5.555,0-10.562-2.249-14.203-5.877
		c-3.628-3.641-5.877-8.648-5.877-14.203c0-11.084,8.982-20.079,20.079-20.079h48.191c5.542,0,10.562,2.249,14.189,5.877
		C105.166,245.437,107.415,250.457,107.415,255.999z"/>
	<path style="fill:#F4BD64;" d="M107.415,95.523c0,11.097-8.982,20.079-20.066,20.079H39.158c-5.555,0-10.562-2.249-14.203-5.877
		c-3.628-3.641-5.877-8.648-5.877-14.203c0-11.084,8.982-20.079,20.079-20.079h48.191c5.542,0,10.562,2.249,14.189,5.877
		C105.166,84.962,107.415,89.982,107.415,95.523z"/>
	<path style="fill:#F4BD64;" d="M107.415,336.236c0,11.097-8.982,20.079-20.066,20.079H39.158c-5.555,0-10.562-2.249-14.203-5.877
		c-3.628-3.641-5.877-8.648-5.877-14.203c0-11.084,8.982-20.079,20.079-20.079h48.191c5.542,0,10.562,2.249,14.189,5.877
		C105.166,325.674,107.415,330.694,107.415,336.236z"/>
	<path style="fill:#F4BD64;" d="M107.415,175.761c0,11.097-8.982,20.079-20.066,20.079H39.158c-5.555,0-10.562-2.249-14.203-5.877
		c-3.628-3.641-5.877-8.648-5.877-14.203c0-11.084,8.982-20.079,20.079-20.079h48.191c5.542,0,10.562,2.249,14.189,5.877
		C105.166,165.199,107.415,170.219,107.415,175.761z"/>
</g>
<g>
	<path style="fill:#DDA758;" d="M47.712,430.677c3.641,3.628,8.648,5.877,14.203,5.877H39.158c-5.555,0-10.562-2.249-14.203-5.877
		c-3.628-3.641-5.877-8.648-5.877-14.203c0-11.084,8.982-20.079,20.079-20.079h22.757c-11.097,0-20.079,8.996-20.079,20.079
		C41.835,422.029,44.084,427.036,47.712,430.677z"/>
	<path style="fill:#DDA758;" d="M47.712,270.202c3.641,3.628,8.648,5.877,14.203,5.877H39.158c-5.555,0-10.562-2.249-14.203-5.877
		c-3.628-3.641-5.877-8.648-5.877-14.203c0-11.084,8.982-20.079,20.079-20.079h22.757c-11.097,0-20.079,8.996-20.079,20.079
		C41.835,261.554,44.084,266.56,47.712,270.202z"/>
	<path style="fill:#DDA758;" d="M47.712,109.726c3.641,3.628,8.648,5.877,14.203,5.877H39.158c-5.555,0-10.562-2.249-14.203-5.877
		c-3.628-3.641-5.877-8.648-5.877-14.203c0-11.084,8.982-20.079,20.079-20.079h22.757c-11.097,0-20.079,8.996-20.079,20.079
		C41.835,101.079,44.084,106.085,47.712,109.726z"/>
	<path style="fill:#DDA758;" d="M47.712,350.439c3.641,3.628,8.648,5.877,14.203,5.877H39.158c-5.555,0-10.562-2.249-14.203-5.877
		c-3.628-3.641-5.877-8.648-5.877-14.203c0-11.084,8.982-20.079,20.079-20.079h22.757c-11.097,0-20.079,8.996-20.079,20.079
		C41.835,341.792,44.084,346.798,47.712,350.439z"/>
	<path style="fill:#DDA758;" d="M47.712,189.964c3.641,3.628,8.648,5.877,14.203,5.877H39.158c-5.555,0-10.562-2.249-14.203-5.877
		c-3.628-3.641-5.877-8.648-5.877-14.203c0-11.084,8.982-20.079,20.079-20.079h22.757c-11.097,0-20.079,8.996-20.079,20.079
		C41.835,181.316,44.084,186.323,47.712,189.964z"/>
</g>
<g>
	<rect x="167.65" y="142.27" style="fill:#666666;" width="186.726" height="20.079"/>
	<rect x="167.65" y="202.508" style="fill:#666666;" width="186.726" height="20.079"/>
</g>
<g>
</g>
<g>
</g>
<g>
</g>
<g>
</g>
<g>
</g>
<g>
</g>
<g>
</g>
<g>
</g>
<g>
</g>
<g>
</g>
<g>
</g>
<g>
</g>
<g>
</g>
<g>
</g>
<g>
</g>
</svg>
