<?xml version="1.0" encoding="iso-8859-1"?>
<!-- Generator: Adobe Illustrator 19.0.0, SVG Export Plug-In . SVG Version: 6.00 Build 0)  -->
<svg version="1.1" id="Layer_1" xmlns="http://www.w3.org/2000/svg" xmlns:xlink="http://www.w3.org/1999/xlink" x="0px" y="0px"
	 viewBox="0 0 392.663 392.663" style="enable-background:new 0 0 392.663 392.663;" xml:space="preserve">
<path style="fill:#56ACE0;" d="M79.418,359.822c0,6.012,4.848,10.925,10.925,10.925H335.16c6.012,0,10.925-4.848,10.925-10.925
	V32.711c0-6.012-4.848-10.925-10.925-10.925H90.343c-6.012,0-10.925,4.848-10.925,10.925"/>
<path style="fill:#FFC10D;" d="M144.194,250.634v38.917h137.18v-38.917c0-5.301-3.168-10.214-7.822-12.024
	c-38.788-15.451-82.683-15.451-121.471,0C147.362,240.485,144.194,245.333,144.194,250.634z"/>
<path style="fill:#FFFFFF;" d="M212.719,102.982c-16.679,0-30.19,13.576-30.19,30.19s13.576,30.19,30.19,30.19
	c16.679,0,30.19-13.576,30.19-30.19S229.463,102.982,212.719,102.982z"/>
<g>
	<path style="fill:#194F82;" d="M281.568,218.376c-44.347-17.713-93.285-17.713-137.632,0
		c-12.929,5.172-21.527,18.166-21.527,32.323v49.842c0,6.012,4.848,10.925,10.925,10.925h158.966
		c6.012,0,10.925-4.848,10.925-10.925v-49.842C303.16,236.477,294.497,223.483,281.568,218.376z M281.374,289.552h-137.18V250.57
		c0-5.301,3.168-10.214,7.822-12.024c39.176-15.58,82.295-15.58,121.471,0c4.719,1.875,7.822,6.723,7.822,12.024v38.917h0.065
		V289.552z"/>
	<path style="fill:#194F82;" d="M212.719,185.277c28.638,0,52.105-23.337,52.105-52.105s-23.337-52.105-52.105-52.105
		c-28.638,0-52.105,23.337-52.105,52.105S184.081,185.277,212.719,185.277z M212.719,102.982c16.679,0,30.19,13.576,30.19,30.19
		s-13.576,30.19-30.19,30.19c-16.679,0-30.19-13.576-30.19-30.19S196.105,102.982,212.719,102.982z"/>
	<path style="fill:#194F82;" d="M335.224,0H90.343C72.307,0,57.632,14.675,57.632,32.711V67.62H35.717
		c-6.012,0-10.925,4.848-10.925,10.925c0,6.012,4.848,10.925,10.925,10.925h21.915v28.897H35.717
		c-6.012,0-10.925,4.848-10.925,10.925c0,6.012,4.848,10.925,10.925,10.925h21.915v112.226H35.717
		c-6.012,0-10.925,4.848-10.925,10.925c0,6.012,4.848,10.925,10.925,10.925h21.915v28.897H35.717
		c-6.012,0-10.925,4.848-10.925,10.925c0,6.012,4.848,10.925,10.925,10.925h21.915v34.909c0,18.036,14.675,32.711,32.711,32.711
		H335.16c18.036,0,32.711-14.675,32.711-32.711V32.711C367.935,14.675,353.196,0,335.224,0z M346.149,359.822
		c0,6.012-4.848,10.925-10.925,10.925H90.343c-6.012,0-10.925-4.848-10.925-10.925v-34.909h16.226
		c6.012,0,10.925-4.848,10.925-10.925c0-6.012-4.848-10.925-10.925-10.925H79.418v-28.897h16.226
		c6.012,0,10.925-4.848,10.925-10.925c0-6.012-4.848-10.925-10.925-10.925H79.418V140.154h16.226
		c6.012,0,10.925-4.848,10.925-10.925c0-6.012-4.848-10.925-10.925-10.925H79.418V89.406h16.226c6.012,0,10.925-4.848,10.925-10.925
		c0-6.012-4.848-10.925-10.925-10.925H79.418V32.711c0-6.012,4.848-10.925,10.925-10.925H335.16c6.012,0,10.925,4.848,10.925,10.925
		v327.111H346.149z"/>
</g>
<g>
</g>
<g>
</g>
<g>
</g>
<g>
</g>
<g>
</g>
<g>
</g>
<g>
</g>
<g>
</g>
<g>
</g>
<g>
</g>
<g>
</g>
<g>
</g>
<g>
</g>
<g>
</g>
<g>
</g>
</svg>
